<svg width="29" height="12" viewBox="0 0 29 12" fill="none" xmlns="http://www.w3.org/2000/svg">
<g clip-path="url(#clip0_65_389)">
<path d="M20.5564 3.23862C21.3536 3.23862 21.9697 3.46444 22.4409 3.91609C22.9119 4.36768 23.1293 4.96985 23.1293 5.72256V9.3355H22.1147V8.50762H22.0784C21.6436 9.18509 21.0275 9.52379 20.3027 9.52379C19.6867 9.52379 19.1431 9.33556 18.7082 8.95926C18.3096 8.58291 18.0559 8.05603 18.0559 7.4915C18.0559 6.88932 18.2734 6.40003 18.7082 6.02368C19.1431 5.64732 19.7592 5.49679 20.4839 5.49679C21.1362 5.49679 21.6436 5.60973 22.0422 5.87315V5.60973C22.0422 5.25844 21.9159 4.90721 21.6634 4.67832L21.6073 4.63121C21.3174 4.36773 20.955 4.21721 20.5564 4.21721C19.9404 4.21721 19.4693 4.48068 19.1431 5.00756L18.2009 4.40526C18.7807 3.61491 19.5417 3.23862 20.5564 3.23862ZM15.4468 0.679441C16.097 0.679441 16.715 0.914441 17.209 1.35268L17.295 1.43209C17.8023 1.88374 18.0559 2.56121 18.0559 3.27626C18.0559 3.99132 17.8023 4.63115 17.295 5.12038C16.7876 5.60968 16.1715 5.87309 15.4468 5.87309L13.7073 5.83544V9.33556H12.6201V0.679382L15.4468 0.679441ZM20.7013 6.40003C20.2665 6.40003 19.9041 6.51291 19.6142 6.73873C19.3243 6.92691 19.1793 7.19032 19.1793 7.52903C19.1793 7.83015 19.3243 8.09356 19.5417 8.24415C19.7954 8.43232 20.0853 8.5452 20.3752 8.5452C20.7811 8.5452 21.187 8.38126 21.5044 8.08403L21.5711 8.01832C21.9335 7.67962 22.1147 7.26562 22.1147 6.81397C21.7885 6.55056 21.3174 6.39997 20.7014 6.39997L20.7013 6.40003ZM15.5193 1.73321H13.7073V4.74409H15.5193C15.9178 4.74409 16.3165 4.59356 16.5702 4.2925C17.15 3.72797 17.15 2.78709 16.6064 2.2225L16.5702 2.18485C16.2802 1.88379 15.9178 1.69562 15.5192 1.73326L15.5193 1.73321ZM29 3.42679L25.4124 11.97H24.3252L25.666 8.99685L23.3105 3.46444H24.4702L26.1734 7.7172H26.2096L27.8766 3.46444H29V3.42679Z" fill="#5F6368"/>
<path d="M9.3947 5.08277C9.3947 4.74406 9.35845 4.40536 9.3222 4.06665H4.79248V5.98606H7.36538C7.25669 6.58818 6.93055 7.15271 6.42322 7.49147V8.73341H7.98146C8.88743 7.86783 9.39476 6.58818 9.39476 5.08283L9.3947 5.08277Z" fill="#4285F4"/>
<path d="M4.79274 9.93777C6.09729 9.93777 7.18445 9.48612 7.98172 8.73341L6.42348 7.49147C5.9886 7.79253 5.44502 7.98071 4.79274 7.98071C3.56058 7.98071 2.47342 7.11512 2.11104 5.91077H0.516602V7.19035C1.35007 8.88394 2.98081 9.93777 4.79274 9.93777Z" fill="#34A853"/>
<path d="M2.11087 5.91079C1.89348 5.30862 1.89348 4.6312 2.11087 3.99138V2.71179H0.516435C-0.172145 4.10432 -0.172145 5.76026 0.516435 7.19038L2.11087 5.91079Z" fill="#FBBC04"/>
<path d="M4.79268 1.95908C5.4812 1.95908 6.13348 2.22255 6.64086 2.71178L8.01791 1.28167C7.14814 0.453667 5.98853 -0.0355682 4.82888 0.00202003C3.01694 0.00202003 1.35001 1.05584 0.552734 2.74943L2.14722 4.02902C2.47336 2.82467 3.56052 1.95908 4.79268 1.95908Z" fill="#EA4335"/>
</g>
<defs>
<clipPath id="clip0_65_389">
<rect width="29" height="12" fill="white"/>
</clipPath>
</defs>
</svg>
