<svg width="10" height="12" viewBox="0 0 10 12" fill="none" xmlns="http://www.w3.org/2000/svg">
<g clip-path="url(#clip0_65_395)">
<path d="M8.48274 0.934039C7.93844 0.302966 6.95453 0.0324097 5.69582 0.0324097H2.0427C1.91816 0.0324144 1.79771 0.0776099 1.703 0.159871C1.60829 0.242132 1.54554 0.356062 1.52602 0.481178L0.00492383 10.2944C-0.0253105 10.4879 0.121994 10.6632 0.314807 10.6632H2.57012L3.13653 7.0087L3.11895 7.12314C3.1593 6.86482 3.37649 6.67429 3.63367 6.67429H4.70539C6.81078 6.67429 8.45934 5.80441 8.9409 3.28803C8.9552 3.2136 8.96758 3.14116 8.97828 3.0704C8.9175 3.03765 8.9175 3.03765 8.97828 3.0704C9.12168 2.14032 8.97731 1.50722 8.48274 0.934039Z" fill="#27346A"/>
<path d="M3.99949 2.73535C4.06115 2.70549 4.12859 2.69001 4.19688 2.69005H7.06086C7.4 2.69005 7.71633 2.7125 8.00539 2.75983C8.08628 2.77295 8.16675 2.78861 8.24668 2.80679C8.35998 2.83222 8.47196 2.86335 8.58223 2.90005C8.72434 2.94833 8.85668 3.00456 8.97832 3.0704C9.12168 2.13996 8.97731 1.50722 8.48274 0.934039C7.93813 0.302966 6.95453 0.0324097 5.69582 0.0324097H2.04238C1.78516 0.0324097 1.56633 0.2229 1.52602 0.481178L0.00492404 10.2941C-0.0253103 10.4879 0.121994 10.6629 0.314494 10.6629H2.57012L3.74524 3.08263C3.75679 3.00813 3.78597 2.93759 3.83026 2.87709C3.87455 2.8166 3.93263 2.76796 3.99949 2.73535Z" fill="#27346A"/>
<path d="M8.94112 3.28806C8.45956 5.80409 6.81104 6.67433 4.70561 6.67433H3.63358C3.3764 6.67433 3.15917 6.86486 3.11921 7.12318L2.41456 11.6671C2.38823 11.8364 2.51698 11.9899 2.68542 11.9899H4.58659C4.6955 11.9899 4.80082 11.9503 4.88361 11.8783C4.96641 11.8064 5.02125 11.7067 5.03827 11.5973L5.05679 11.4988L5.41511 9.18873L5.43819 9.06106C5.45521 8.95164 5.51004 8.852 5.59283 8.78003C5.67562 8.70807 5.78093 8.66851 5.88983 8.66847H6.17436C8.01604 8.66847 9.45811 7.90739 9.87952 5.70622C10.0554 4.78636 9.9644 4.01836 9.49909 3.47891C9.35796 3.31552 9.18268 3.18058 8.97851 3.07043C8.96745 3.14156 8.95546 3.21364 8.94112 3.28806Z" fill="#2790C3"/>
<path d="M8.47467 2.86599C8.39958 2.84369 8.32378 2.82394 8.2474 2.80679C8.16743 2.7889 8.08696 2.77334 8.00611 2.76014C7.71674 2.71249 7.40064 2.69 7.06119 2.69H4.19756C4.12922 2.68985 4.06173 2.70546 4.00018 2.73566C3.93323 2.76816 3.87509 2.81678 3.83078 2.87729C3.78647 2.93781 3.75733 3.00839 3.74588 3.08294L3.13721 7.00869L3.11963 7.12313C3.15967 6.86481 3.37686 6.67428 3.63408 6.67428H4.70611C6.8115 6.67428 8.46002 5.8044 8.94158 3.28802C8.95592 3.21359 8.96795 3.14147 8.979 3.07039C8.85705 3.0049 8.72506 2.94832 8.58291 2.90036C8.54704 2.88827 8.51097 2.87681 8.47471 2.86599" fill="#1F264F"/>
</g>
<defs>
<clipPath id="clip0_65_395">
<rect width="10" height="12" fill="white"/>
</clipPath>
</defs>
</svg>
